G04 #@! TF.GenerationSoftware,KiCad,Pcbnew,(5.1.9)-1*
G04 #@! TF.CreationDate,2021-05-07T09:47:05-04:00*
G04 #@! TF.ProjectId,pigha,70696768-612e-46b6-9963-61645f706362,rev?*
G04 #@! TF.SameCoordinates,Original*
G04 #@! TF.FileFunction,Soldermask,Bot*
G04 #@! TF.FilePolarity,Negative*
%FSLAX46Y46*%
G04 Gerber Fmt 4.6, Leading zero omitted, Abs format (unit mm)*
G04 Created by KiCad (PCBNEW (5.1.9)-1) date 2021-05-07 09:47:05*
%MOMM*%
%LPD*%
G01*
G04 APERTURE LIST*
G04 #@! TA.AperFunction,Profile*
%ADD10C,0.100000*%
G04 #@! TD*
%ADD11O,2.200000X2.200000*%
%ADD12C,3.200000*%
%ADD13O,1.550000X1.550000*%
%ADD14C,0.254000*%
%ADD15C,0.100000*%
G04 APERTURE END LIST*
D10*
X143546351Y-113822847D02*
X143546356Y-63817611D01*
X78546356Y-63817611D02*
X78546356Y-113817611D01*
X78546356Y-63817611D02*
G75*
G02*
X81546356Y-60817611I3000000J0D01*
G01*
X140546356Y-60817611D02*
X81546356Y-60817611D01*
X140546356Y-60817611D02*
G75*
G02*
X143546356Y-63817611I0J-3000000D01*
G01*
X143546351Y-113822847D02*
X143546351Y-113822847D01*
X81546356Y-116817611D02*
G75*
G02*
X78546356Y-113817611I0J3000000D01*
G01*
X81546356Y-116817611D02*
X140546356Y-116817611D01*
X143546351Y-113822847D02*
G75*
G02*
X140546356Y-116817611I-2999995J5236D01*
G01*
G36*
G01*
X85920000Y-64490000D02*
X87920000Y-64490000D01*
G75*
G02*
X88020000Y-64590000I0J-100000D01*
G01*
X88020000Y-66590000D01*
G75*
G02*
X87920000Y-66690000I-100000J0D01*
G01*
X85920000Y-66690000D01*
G75*
G02*
X85820000Y-66590000I0J100000D01*
G01*
X85820000Y-64590000D01*
G75*
G02*
X85920000Y-64490000I100000J0D01*
G01*
G37*
D11*
X86920000Y-63050000D03*
X89460000Y-65590000D03*
X89460000Y-63050000D03*
X92000000Y-65590000D03*
X92000000Y-63050000D03*
X94540000Y-65590000D03*
X94540000Y-63050000D03*
X97080000Y-65590000D03*
X97080000Y-63050000D03*
X99620000Y-65590000D03*
X99620000Y-63050000D03*
X102160000Y-65590000D03*
X102160000Y-63050000D03*
X104700000Y-65590000D03*
X104700000Y-63050000D03*
X107240000Y-65590000D03*
X107240000Y-63050000D03*
X109780000Y-65590000D03*
X109780000Y-63050000D03*
X112320000Y-65590000D03*
X112320000Y-63050000D03*
X114860000Y-65590000D03*
X114860000Y-63050000D03*
X117400000Y-65590000D03*
X117400000Y-63050000D03*
X119940000Y-65590000D03*
X119940000Y-63050000D03*
X122480000Y-65590000D03*
X122480000Y-63050000D03*
X125020000Y-65590000D03*
X125020000Y-63050000D03*
X127560000Y-65590000D03*
X127560000Y-63050000D03*
X130100000Y-65590000D03*
X130100000Y-63050000D03*
X132640000Y-65590000D03*
X132640000Y-63050000D03*
X135180000Y-65590000D03*
X135180000Y-63050000D03*
D12*
X107950000Y-91440000D03*
X107950000Y-85090000D03*
X120650000Y-91440000D03*
X120650000Y-85090000D03*
D13*
X90170000Y-95630000D03*
X90170000Y-93630000D03*
X90170000Y-91630000D03*
X90170000Y-89630000D03*
G36*
G01*
X89395000Y-88305000D02*
X89395000Y-86955000D01*
G75*
G02*
X89495000Y-86855000I100000J0D01*
G01*
X90845000Y-86855000D01*
G75*
G02*
X90945000Y-86955000I0J-100000D01*
G01*
X90945000Y-88305000D01*
G75*
G02*
X90845000Y-88405000I-100000J0D01*
G01*
X89495000Y-88405000D01*
G75*
G02*
X89395000Y-88305000I0J100000D01*
G01*
G37*
D12*
X114300000Y-88900000D03*
X82040000Y-64310000D03*
X140040000Y-64330000D03*
X82040000Y-113320000D03*
X140030000Y-113310000D03*
D14*
X142113000Y-77343000D02*
X134747000Y-77343000D01*
X134747000Y-69977000D01*
X142113000Y-69977000D01*
X142113000Y-77343000D01*
D15*
G36*
X142113000Y-77343000D02*
G01*
X134747000Y-77343000D01*
X134747000Y-69977000D01*
X142113000Y-69977000D01*
X142113000Y-77343000D01*
G37*
M02*
