G04 #@! TF.GenerationSoftware,KiCad,Pcbnew,(5.1.9)-1*
G04 #@! TF.CreationDate,2021-05-07T09:47:05-04:00*
G04 #@! TF.ProjectId,pigha,70696768-612e-46b6-9963-61645f706362,rev?*
G04 #@! TF.SameCoordinates,Original*
G04 #@! TF.FileFunction,Legend,Top*
G04 #@! TF.FilePolarity,Positive*
%FSLAX46Y46*%
G04 Gerber Fmt 4.6, Leading zero omitted, Abs format (unit mm)*
G04 Created by KiCad (PCBNEW (5.1.9)-1) date 2021-05-07 09:47:05*
%MOMM*%
%LPD*%
G01*
G04 APERTURE LIST*
%ADD10C,0.300000*%
G04 #@! TA.AperFunction,Profile*
%ADD11C,0.100000*%
G04 #@! TD*
%ADD12C,0.120000*%
%ADD13C,0.150000*%
%ADD14C,0.254000*%
%ADD15C,0.100000*%
G04 APERTURE END LIST*
D10*
X93454285Y-111097142D02*
X93668571Y-111168571D01*
X94025714Y-111168571D01*
X94168571Y-111097142D01*
X94239999Y-111025714D01*
X94311428Y-110882857D01*
X94311428Y-110740000D01*
X94239999Y-110597142D01*
X94168571Y-110525714D01*
X94025714Y-110454285D01*
X93739999Y-110382857D01*
X93597142Y-110311428D01*
X93525714Y-110240000D01*
X93454285Y-110097142D01*
X93454285Y-109954285D01*
X93525714Y-109811428D01*
X93597142Y-109740000D01*
X93739999Y-109668571D01*
X94097142Y-109668571D01*
X94311428Y-109740000D01*
X94954285Y-111168571D02*
X94954285Y-110168571D01*
X94954285Y-110311428D02*
X95025714Y-110240000D01*
X95168571Y-110168571D01*
X95382857Y-110168571D01*
X95525714Y-110240000D01*
X95597142Y-110382857D01*
X95597142Y-111168571D01*
X95597142Y-110382857D02*
X95668571Y-110240000D01*
X95811428Y-110168571D01*
X96025714Y-110168571D01*
X96168571Y-110240000D01*
X96239999Y-110382857D01*
X96239999Y-111168571D01*
X97525714Y-111097142D02*
X97382857Y-111168571D01*
X97097142Y-111168571D01*
X96954285Y-111097142D01*
X96882857Y-110954285D01*
X96882857Y-110382857D01*
X96954285Y-110240000D01*
X97097142Y-110168571D01*
X97382857Y-110168571D01*
X97525714Y-110240000D01*
X97597142Y-110382857D01*
X97597142Y-110525714D01*
X96882857Y-110668571D01*
X98454285Y-111168571D02*
X98311428Y-111097142D01*
X98239999Y-110954285D01*
X98239999Y-109668571D01*
X99239999Y-111168571D02*
X99097142Y-111097142D01*
X99025714Y-110954285D01*
X99025714Y-109668571D01*
X99739999Y-111097142D02*
X99882857Y-111168571D01*
X100168571Y-111168571D01*
X100311428Y-111097142D01*
X100382857Y-110954285D01*
X100382857Y-110882857D01*
X100311428Y-110740000D01*
X100168571Y-110668571D01*
X99954285Y-110668571D01*
X99811428Y-110597142D01*
X99739999Y-110454285D01*
X99739999Y-110382857D01*
X99811428Y-110240000D01*
X99954285Y-110168571D01*
X100168571Y-110168571D01*
X100311428Y-110240000D01*
X102882857Y-111168571D02*
X102168571Y-111168571D01*
X102168571Y-109668571D01*
X103382857Y-111168571D02*
X103382857Y-110168571D01*
X103382857Y-109668571D02*
X103311428Y-109740000D01*
X103382857Y-109811428D01*
X103454285Y-109740000D01*
X103382857Y-109668571D01*
X103382857Y-109811428D01*
X104097142Y-111168571D02*
X104097142Y-109668571D01*
X104239999Y-110597142D02*
X104668571Y-111168571D01*
X104668571Y-110168571D02*
X104097142Y-110740000D01*
X105882857Y-111097142D02*
X105739999Y-111168571D01*
X105454285Y-111168571D01*
X105311428Y-111097142D01*
X105239999Y-110954285D01*
X105239999Y-110382857D01*
X105311428Y-110240000D01*
X105454285Y-110168571D01*
X105739999Y-110168571D01*
X105882857Y-110240000D01*
X105954285Y-110382857D01*
X105954285Y-110525714D01*
X105239999Y-110668571D01*
X107739999Y-111168571D02*
X107739999Y-109668571D01*
X108311428Y-109668571D01*
X108454285Y-109740000D01*
X108525714Y-109811428D01*
X108597142Y-109954285D01*
X108597142Y-110168571D01*
X108525714Y-110311428D01*
X108454285Y-110382857D01*
X108311428Y-110454285D01*
X107739999Y-110454285D01*
X109882857Y-111168571D02*
X109882857Y-110382857D01*
X109811428Y-110240000D01*
X109668571Y-110168571D01*
X109382857Y-110168571D01*
X109239999Y-110240000D01*
X109882857Y-111097142D02*
X109739999Y-111168571D01*
X109382857Y-111168571D01*
X109239999Y-111097142D01*
X109168571Y-110954285D01*
X109168571Y-110811428D01*
X109239999Y-110668571D01*
X109382857Y-110597142D01*
X109739999Y-110597142D01*
X109882857Y-110525714D01*
X110597142Y-111168571D02*
X110597142Y-110168571D01*
X110597142Y-110454285D02*
X110668571Y-110311428D01*
X110739999Y-110240000D01*
X110882857Y-110168571D01*
X111025714Y-110168571D01*
X111311428Y-110168571D02*
X111882857Y-110168571D01*
X111525714Y-109668571D02*
X111525714Y-110954285D01*
X111597142Y-111097142D01*
X111739999Y-111168571D01*
X111882857Y-111168571D01*
X112382857Y-111168571D02*
X112382857Y-110168571D01*
X112382857Y-109668571D02*
X112311428Y-109740000D01*
X112382857Y-109811428D01*
X112454285Y-109740000D01*
X112382857Y-109668571D01*
X112382857Y-109811428D01*
X113739999Y-111097142D02*
X113597142Y-111168571D01*
X113311428Y-111168571D01*
X113168571Y-111097142D01*
X113097142Y-111025714D01*
X113025714Y-110882857D01*
X113025714Y-110454285D01*
X113097142Y-110311428D01*
X113168571Y-110240000D01*
X113311428Y-110168571D01*
X113597142Y-110168571D01*
X113739999Y-110240000D01*
X115025714Y-110168571D02*
X115025714Y-111168571D01*
X114382857Y-110168571D02*
X114382857Y-110954285D01*
X114454285Y-111097142D01*
X114597142Y-111168571D01*
X114811428Y-111168571D01*
X114954285Y-111097142D01*
X115025714Y-111025714D01*
X115954285Y-111168571D02*
X115811428Y-111097142D01*
X115740000Y-110954285D01*
X115740000Y-109668571D01*
X117168571Y-111168571D02*
X117168571Y-110382857D01*
X117097142Y-110240000D01*
X116954285Y-110168571D01*
X116668571Y-110168571D01*
X116525714Y-110240000D01*
X117168571Y-111097142D02*
X117025714Y-111168571D01*
X116668571Y-111168571D01*
X116525714Y-111097142D01*
X116454285Y-110954285D01*
X116454285Y-110811428D01*
X116525714Y-110668571D01*
X116668571Y-110597142D01*
X117025714Y-110597142D01*
X117168571Y-110525714D01*
X117668571Y-110168571D02*
X118240000Y-110168571D01*
X117882857Y-109668571D02*
X117882857Y-110954285D01*
X117954285Y-111097142D01*
X118097142Y-111168571D01*
X118240000Y-111168571D01*
X119311428Y-111097142D02*
X119168571Y-111168571D01*
X118882857Y-111168571D01*
X118740000Y-111097142D01*
X118668571Y-110954285D01*
X118668571Y-110382857D01*
X118740000Y-110240000D01*
X118882857Y-110168571D01*
X119168571Y-110168571D01*
X119311428Y-110240000D01*
X119382857Y-110382857D01*
X119382857Y-110525714D01*
X118668571Y-110668571D01*
X121168571Y-111168571D02*
X121168571Y-109668571D01*
X121668571Y-110740000D01*
X122168571Y-109668571D01*
X122168571Y-111168571D01*
X123525714Y-111168571D02*
X123525714Y-110382857D01*
X123454285Y-110240000D01*
X123311428Y-110168571D01*
X123025714Y-110168571D01*
X122882857Y-110240000D01*
X123525714Y-111097142D02*
X123382857Y-111168571D01*
X123025714Y-111168571D01*
X122882857Y-111097142D01*
X122811428Y-110954285D01*
X122811428Y-110811428D01*
X122882857Y-110668571D01*
X123025714Y-110597142D01*
X123382857Y-110597142D01*
X123525714Y-110525714D01*
X124025714Y-110168571D02*
X124597142Y-110168571D01*
X124240000Y-109668571D02*
X124240000Y-110954285D01*
X124311428Y-111097142D01*
X124454285Y-111168571D01*
X124597142Y-111168571D01*
X124882857Y-110168571D02*
X125454285Y-110168571D01*
X125097142Y-109668571D02*
X125097142Y-110954285D01*
X125168571Y-111097142D01*
X125311428Y-111168571D01*
X125454285Y-111168571D01*
X126525714Y-111097142D02*
X126382857Y-111168571D01*
X126097142Y-111168571D01*
X125954285Y-111097142D01*
X125882857Y-110954285D01*
X125882857Y-110382857D01*
X125954285Y-110240000D01*
X126097142Y-110168571D01*
X126382857Y-110168571D01*
X126525714Y-110240000D01*
X126597142Y-110382857D01*
X126597142Y-110525714D01*
X125882857Y-110668571D01*
X127240000Y-111168571D02*
X127240000Y-110168571D01*
X127240000Y-110454285D02*
X127311428Y-110311428D01*
X127382857Y-110240000D01*
X127525714Y-110168571D01*
X127668571Y-110168571D01*
D11*
X143546351Y-113822847D02*
X143546356Y-63817611D01*
X78546356Y-63817611D02*
X78546356Y-113817611D01*
X78546356Y-63817611D02*
G75*
G02*
X81546356Y-60817611I3000000J0D01*
G01*
X140546356Y-60817611D02*
X81546356Y-60817611D01*
X140546356Y-60817611D02*
G75*
G02*
X143546356Y-63817611I0J-3000000D01*
G01*
X143546351Y-113822847D02*
X143546351Y-113822847D01*
X81546356Y-116817611D02*
G75*
G02*
X78546356Y-113817611I0J3000000D01*
G01*
X81546356Y-116817611D02*
X140546356Y-116817611D01*
X143546351Y-113822847D02*
G75*
G02*
X140546356Y-116817611I-2999995J5236D01*
G01*
D12*
X89110000Y-96690000D02*
X91230000Y-96690000D01*
X89110000Y-88630000D02*
X89110000Y-96690000D01*
X91230000Y-88630000D02*
X91230000Y-96690000D01*
X89110000Y-88630000D02*
X91230000Y-88630000D01*
X89110000Y-87630000D02*
X89110000Y-86570000D01*
X89110000Y-86570000D02*
X90170000Y-86570000D01*
D13*
X107248095Y-91982380D02*
X107248095Y-90982380D01*
X107248095Y-91458571D02*
X107819523Y-91458571D01*
X107819523Y-91982380D02*
X107819523Y-90982380D01*
X108200476Y-90982380D02*
X108819523Y-90982380D01*
X108486190Y-91363333D01*
X108629047Y-91363333D01*
X108724285Y-91410952D01*
X108771904Y-91458571D01*
X108819523Y-91553809D01*
X108819523Y-91791904D01*
X108771904Y-91887142D01*
X108724285Y-91934761D01*
X108629047Y-91982380D01*
X108343333Y-91982380D01*
X108248095Y-91934761D01*
X108200476Y-91887142D01*
X107248095Y-85632380D02*
X107248095Y-84632380D01*
X107248095Y-85108571D02*
X107819523Y-85108571D01*
X107819523Y-85632380D02*
X107819523Y-84632380D01*
X108200476Y-84632380D02*
X108819523Y-84632380D01*
X108486190Y-85013333D01*
X108629047Y-85013333D01*
X108724285Y-85060952D01*
X108771904Y-85108571D01*
X108819523Y-85203809D01*
X108819523Y-85441904D01*
X108771904Y-85537142D01*
X108724285Y-85584761D01*
X108629047Y-85632380D01*
X108343333Y-85632380D01*
X108248095Y-85584761D01*
X108200476Y-85537142D01*
X119948095Y-91982380D02*
X119948095Y-90982380D01*
X119948095Y-91458571D02*
X120519523Y-91458571D01*
X120519523Y-91982380D02*
X120519523Y-90982380D01*
X120900476Y-90982380D02*
X121519523Y-90982380D01*
X121186190Y-91363333D01*
X121329047Y-91363333D01*
X121424285Y-91410952D01*
X121471904Y-91458571D01*
X121519523Y-91553809D01*
X121519523Y-91791904D01*
X121471904Y-91887142D01*
X121424285Y-91934761D01*
X121329047Y-91982380D01*
X121043333Y-91982380D01*
X120948095Y-91934761D01*
X120900476Y-91887142D01*
X119948095Y-85632380D02*
X119948095Y-84632380D01*
X119948095Y-85108571D02*
X120519523Y-85108571D01*
X120519523Y-85632380D02*
X120519523Y-84632380D01*
X120900476Y-84632380D02*
X121519523Y-84632380D01*
X121186190Y-85013333D01*
X121329047Y-85013333D01*
X121424285Y-85060952D01*
X121471904Y-85108571D01*
X121519523Y-85203809D01*
X121519523Y-85441904D01*
X121471904Y-85537142D01*
X121424285Y-85584761D01*
X121329047Y-85632380D01*
X121043333Y-85632380D01*
X120948095Y-85584761D01*
X120900476Y-85537142D01*
X78336666Y-85927142D02*
X78289047Y-85974761D01*
X78146190Y-86022380D01*
X78050952Y-86022380D01*
X77908095Y-85974761D01*
X77812857Y-85879523D01*
X77765238Y-85784285D01*
X77717619Y-85593809D01*
X77717619Y-85450952D01*
X77765238Y-85260476D01*
X77812857Y-85165238D01*
X77908095Y-85070000D01*
X78050952Y-85022380D01*
X78146190Y-85022380D01*
X78289047Y-85070000D01*
X78336666Y-85117619D01*
X78908095Y-86022380D02*
X78812857Y-85974761D01*
X78765238Y-85927142D01*
X78717619Y-85831904D01*
X78717619Y-85546190D01*
X78765238Y-85450952D01*
X78812857Y-85403333D01*
X78908095Y-85355714D01*
X79050952Y-85355714D01*
X79146190Y-85403333D01*
X79193809Y-85450952D01*
X79241428Y-85546190D01*
X79241428Y-85831904D01*
X79193809Y-85927142D01*
X79146190Y-85974761D01*
X79050952Y-86022380D01*
X78908095Y-86022380D01*
X79670000Y-85355714D02*
X79670000Y-86022380D01*
X79670000Y-85450952D02*
X79717619Y-85403333D01*
X79812857Y-85355714D01*
X79955714Y-85355714D01*
X80050952Y-85403333D01*
X80098571Y-85498571D01*
X80098571Y-86022380D01*
X80574761Y-85355714D02*
X80574761Y-86022380D01*
X80574761Y-85450952D02*
X80622380Y-85403333D01*
X80717619Y-85355714D01*
X80860476Y-85355714D01*
X80955714Y-85403333D01*
X81003333Y-85498571D01*
X81003333Y-86022380D01*
X81860476Y-85974761D02*
X81765238Y-86022380D01*
X81574761Y-86022380D01*
X81479523Y-85974761D01*
X81431904Y-85879523D01*
X81431904Y-85498571D01*
X81479523Y-85403333D01*
X81574761Y-85355714D01*
X81765238Y-85355714D01*
X81860476Y-85403333D01*
X81908095Y-85498571D01*
X81908095Y-85593809D01*
X81431904Y-85689047D01*
X82765238Y-85974761D02*
X82670000Y-86022380D01*
X82479523Y-86022380D01*
X82384285Y-85974761D01*
X82336666Y-85927142D01*
X82289047Y-85831904D01*
X82289047Y-85546190D01*
X82336666Y-85450952D01*
X82384285Y-85403333D01*
X82479523Y-85355714D01*
X82670000Y-85355714D01*
X82765238Y-85403333D01*
X83050952Y-85355714D02*
X83431904Y-85355714D01*
X83193809Y-85022380D02*
X83193809Y-85879523D01*
X83241428Y-85974761D01*
X83336666Y-86022380D01*
X83431904Y-86022380D01*
X83908095Y-86022380D02*
X83812857Y-85974761D01*
X83765238Y-85927142D01*
X83717619Y-85831904D01*
X83717619Y-85546190D01*
X83765238Y-85450952D01*
X83812857Y-85403333D01*
X83908095Y-85355714D01*
X84050952Y-85355714D01*
X84146190Y-85403333D01*
X84193809Y-85450952D01*
X84241428Y-85546190D01*
X84241428Y-85831904D01*
X84193809Y-85927142D01*
X84146190Y-85974761D01*
X84050952Y-86022380D01*
X83908095Y-86022380D01*
X84670000Y-86022380D02*
X84670000Y-85355714D01*
X84670000Y-85546190D02*
X84717619Y-85450952D01*
X84765238Y-85403333D01*
X84860476Y-85355714D01*
X84955714Y-85355714D01*
X86050952Y-85355714D02*
X86050952Y-86355714D01*
X86050952Y-85403333D02*
X86146190Y-85355714D01*
X86336666Y-85355714D01*
X86431904Y-85403333D01*
X86479523Y-85450952D01*
X86527142Y-85546190D01*
X86527142Y-85831904D01*
X86479523Y-85927142D01*
X86431904Y-85974761D01*
X86336666Y-86022380D01*
X86146190Y-86022380D01*
X86050952Y-85974761D01*
X86955714Y-86022380D02*
X86955714Y-85355714D01*
X86955714Y-85022380D02*
X86908095Y-85070000D01*
X86955714Y-85117619D01*
X87003333Y-85070000D01*
X86955714Y-85022380D01*
X86955714Y-85117619D01*
X87431904Y-85355714D02*
X87431904Y-86022380D01*
X87431904Y-85450952D02*
X87479523Y-85403333D01*
X87574761Y-85355714D01*
X87717619Y-85355714D01*
X87812857Y-85403333D01*
X87860476Y-85498571D01*
X87860476Y-86022380D01*
X88289047Y-85974761D02*
X88384285Y-86022380D01*
X88574761Y-86022380D01*
X88670000Y-85974761D01*
X88717619Y-85879523D01*
X88717619Y-85831904D01*
X88670000Y-85736666D01*
X88574761Y-85689047D01*
X88431904Y-85689047D01*
X88336666Y-85641428D01*
X88289047Y-85546190D01*
X88289047Y-85498571D01*
X88336666Y-85403333D01*
X88431904Y-85355714D01*
X88574761Y-85355714D01*
X88670000Y-85403333D01*
X90193809Y-86403333D02*
X90146190Y-86355714D01*
X90050952Y-86212857D01*
X90003333Y-86117619D01*
X89955714Y-85974761D01*
X89908095Y-85736666D01*
X89908095Y-85546190D01*
X89955714Y-85308095D01*
X90003333Y-85165238D01*
X90050952Y-85070000D01*
X90146190Y-84927142D01*
X90193809Y-84879523D01*
X90527142Y-85974761D02*
X90622380Y-86022380D01*
X90812857Y-86022380D01*
X90908095Y-85974761D01*
X90955714Y-85879523D01*
X90955714Y-85831904D01*
X90908095Y-85736666D01*
X90812857Y-85689047D01*
X90670000Y-85689047D01*
X90574761Y-85641428D01*
X90527142Y-85546190D01*
X90527142Y-85498571D01*
X90574761Y-85403333D01*
X90670000Y-85355714D01*
X90812857Y-85355714D01*
X90908095Y-85403333D01*
X91812857Y-85355714D02*
X91812857Y-86355714D01*
X91812857Y-85974761D02*
X91717619Y-86022380D01*
X91527142Y-86022380D01*
X91431904Y-85974761D01*
X91384285Y-85927142D01*
X91336666Y-85831904D01*
X91336666Y-85546190D01*
X91384285Y-85450952D01*
X91431904Y-85403333D01*
X91527142Y-85355714D01*
X91717619Y-85355714D01*
X91812857Y-85403333D01*
X92717619Y-85355714D02*
X92717619Y-86022380D01*
X92289047Y-85355714D02*
X92289047Y-85879523D01*
X92336666Y-85974761D01*
X92431904Y-86022380D01*
X92574761Y-86022380D01*
X92670000Y-85974761D01*
X92717619Y-85927142D01*
X93622380Y-86022380D02*
X93622380Y-85498571D01*
X93574761Y-85403333D01*
X93479523Y-85355714D01*
X93289047Y-85355714D01*
X93193809Y-85403333D01*
X93622380Y-85974761D02*
X93527142Y-86022380D01*
X93289047Y-86022380D01*
X93193809Y-85974761D01*
X93146190Y-85879523D01*
X93146190Y-85784285D01*
X93193809Y-85689047D01*
X93289047Y-85641428D01*
X93527142Y-85641428D01*
X93622380Y-85593809D01*
X94098571Y-86022380D02*
X94098571Y-85355714D01*
X94098571Y-85546190D02*
X94146190Y-85450952D01*
X94193809Y-85403333D01*
X94289047Y-85355714D01*
X94384285Y-85355714D01*
X95098571Y-85974761D02*
X95003333Y-86022380D01*
X94812857Y-86022380D01*
X94717619Y-85974761D01*
X94670000Y-85879523D01*
X94670000Y-85498571D01*
X94717619Y-85403333D01*
X94812857Y-85355714D01*
X95003333Y-85355714D01*
X95098571Y-85403333D01*
X95146190Y-85498571D01*
X95146190Y-85593809D01*
X94670000Y-85689047D01*
X96336666Y-86022380D02*
X96336666Y-85355714D01*
X96336666Y-85022380D02*
X96289047Y-85070000D01*
X96336666Y-85117619D01*
X96384285Y-85070000D01*
X96336666Y-85022380D01*
X96336666Y-85117619D01*
X96765238Y-85974761D02*
X96860476Y-86022380D01*
X97050952Y-86022380D01*
X97146190Y-85974761D01*
X97193809Y-85879523D01*
X97193809Y-85831904D01*
X97146190Y-85736666D01*
X97050952Y-85689047D01*
X96908095Y-85689047D01*
X96812857Y-85641428D01*
X96765238Y-85546190D01*
X96765238Y-85498571D01*
X96812857Y-85403333D01*
X96908095Y-85355714D01*
X97050952Y-85355714D01*
X97146190Y-85403333D01*
X98384285Y-85355714D02*
X98384285Y-86355714D01*
X98384285Y-85403333D02*
X98479523Y-85355714D01*
X98670000Y-85355714D01*
X98765238Y-85403333D01*
X98812857Y-85450952D01*
X98860476Y-85546190D01*
X98860476Y-85831904D01*
X98812857Y-85927142D01*
X98765238Y-85974761D01*
X98670000Y-86022380D01*
X98479523Y-86022380D01*
X98384285Y-85974761D01*
X99289047Y-86022380D02*
X99289047Y-85355714D01*
X99289047Y-85022380D02*
X99241428Y-85070000D01*
X99289047Y-85117619D01*
X99336666Y-85070000D01*
X99289047Y-85022380D01*
X99289047Y-85117619D01*
X99765238Y-85355714D02*
X99765238Y-86022380D01*
X99765238Y-85450952D02*
X99812857Y-85403333D01*
X99908095Y-85355714D01*
X100050952Y-85355714D01*
X100146190Y-85403333D01*
X100193809Y-85498571D01*
X100193809Y-86022380D01*
X101955714Y-86022380D02*
X101384285Y-86022380D01*
X101670000Y-86022380D02*
X101670000Y-85022380D01*
X101574761Y-85165238D01*
X101479523Y-85260476D01*
X101384285Y-85308095D01*
X102289047Y-86403333D02*
X102336666Y-86355714D01*
X102431904Y-86212857D01*
X102479523Y-86117619D01*
X102527142Y-85974761D01*
X102574761Y-85736666D01*
X102574761Y-85546190D01*
X102527142Y-85308095D01*
X102479523Y-85165238D01*
X102431904Y-85070000D01*
X102336666Y-84927142D01*
X102289047Y-84879523D01*
X113598095Y-89442380D02*
X113598095Y-88442380D01*
X113598095Y-88918571D02*
X114169523Y-88918571D01*
X114169523Y-89442380D02*
X114169523Y-88442380D01*
X114550476Y-88442380D02*
X115169523Y-88442380D01*
X114836190Y-88823333D01*
X114979047Y-88823333D01*
X115074285Y-88870952D01*
X115121904Y-88918571D01*
X115169523Y-89013809D01*
X115169523Y-89251904D01*
X115121904Y-89347142D01*
X115074285Y-89394761D01*
X114979047Y-89442380D01*
X114693333Y-89442380D01*
X114598095Y-89394761D01*
X114550476Y-89347142D01*
X81338095Y-64852380D02*
X81338095Y-63852380D01*
X81338095Y-64328571D02*
X81909523Y-64328571D01*
X81909523Y-64852380D02*
X81909523Y-63852380D01*
X82909523Y-64852380D02*
X82338095Y-64852380D01*
X82623809Y-64852380D02*
X82623809Y-63852380D01*
X82528571Y-63995238D01*
X82433333Y-64090476D01*
X82338095Y-64138095D01*
X139338095Y-64872380D02*
X139338095Y-63872380D01*
X139338095Y-64348571D02*
X139909523Y-64348571D01*
X139909523Y-64872380D02*
X139909523Y-63872380D01*
X140338095Y-63967619D02*
X140385714Y-63920000D01*
X140480952Y-63872380D01*
X140719047Y-63872380D01*
X140814285Y-63920000D01*
X140861904Y-63967619D01*
X140909523Y-64062857D01*
X140909523Y-64158095D01*
X140861904Y-64300952D01*
X140290476Y-64872380D01*
X140909523Y-64872380D01*
X81338095Y-113862380D02*
X81338095Y-112862380D01*
X81338095Y-113338571D02*
X81909523Y-113338571D01*
X81909523Y-113862380D02*
X81909523Y-112862380D01*
X82290476Y-112862380D02*
X82909523Y-112862380D01*
X82576190Y-113243333D01*
X82719047Y-113243333D01*
X82814285Y-113290952D01*
X82861904Y-113338571D01*
X82909523Y-113433809D01*
X82909523Y-113671904D01*
X82861904Y-113767142D01*
X82814285Y-113814761D01*
X82719047Y-113862380D01*
X82433333Y-113862380D01*
X82338095Y-113814761D01*
X82290476Y-113767142D01*
X139328095Y-113852380D02*
X139328095Y-112852380D01*
X139328095Y-113328571D02*
X139899523Y-113328571D01*
X139899523Y-113852380D02*
X139899523Y-112852380D01*
X140804285Y-113185714D02*
X140804285Y-113852380D01*
X140566190Y-112804761D02*
X140328095Y-113519047D01*
X140947142Y-113519047D01*
D14*
X142113000Y-77343000D02*
X134747000Y-77343000D01*
X134747000Y-69977000D01*
X142113000Y-69977000D01*
X142113000Y-77343000D01*
D15*
G36*
X142113000Y-77343000D02*
G01*
X134747000Y-77343000D01*
X134747000Y-69977000D01*
X142113000Y-69977000D01*
X142113000Y-77343000D01*
G37*
M02*
